<svg width="150" height="150" viewBox="0 0 150 150" fill="none" xmlns="http://www.w3.org/2000/svg">
<circle cx="75" cy="75" r="74" stroke="#FFC41E" stroke-width="2"/>
<path d="M115 70.9772L75 38.9607" stroke="#242424" stroke-width="4" stroke-linecap="round" stroke-linejoin="round"/>
<path d="M35 70.9772L75 38.9607" stroke="#242424" stroke-width="4" stroke-linecap="round" stroke-linejoin="round"/>
<path d="M47 115V62.9731" stroke="#242424" stroke-width="4" stroke-linecap="round"/>
<path d="M103 115V62.9731" stroke="#242424" stroke-width="4" stroke-linecap="round"/>
<path d="M47 115H103" stroke="#242424" stroke-width="4" stroke-linecap="round"/>
<path d="M75.2877 80.7486L85.7216 84.3939V99.2642C85.7216 99.5531 85.6043 99.8301 85.3955 100.034C85.1867 100.239 84.9035 100.353 84.6082 100.353H80.1546C79.8593 100.353 79.5761 100.239 79.3673 100.034C79.1585 99.8301 79.0412 99.5531 79.0412 99.2642V91.6401H67.9072V99.2642C67.9072 99.5531 67.7899 99.8301 67.5811 100.034C67.3723 100.239 67.0891 100.353 66.7938 100.353H62.3402C62.0449 100.353 61.7617 100.239 61.5529 100.034C61.3441 99.8301 61.2268 99.5531 61.2268 99.2642V84.7029C58.6409 83.8009 56.7732 81.4062 56.7732 78.5703C56.7732 77.9925 57.0078 77.4385 57.4254 77.03C57.843 76.6215 58.4094 76.392 59 76.392C59.5906 76.392 60.157 76.6215 60.5746 77.03C60.9922 77.4385 61.2268 77.9925 61.2268 78.5703C61.2279 79.1477 61.4629 79.7011 61.8802 80.1094C62.2976 80.5177 62.8634 80.7475 63.4536 80.7486H75.2877ZM92.4021 73.1245V75.3028C92.4021 76.4582 91.9328 77.5664 91.0976 78.3834C90.2624 79.2004 89.1296 79.6594 87.9485 79.6594H85.7216V82.0814L76.8144 78.9699V68.7679C76.8144 67.7978 78.0127 67.3118 78.7149 67.998L80.6132 69.857H84.3452C85.1044 69.857 85.9979 70.3961 86.3368 71.0612L86.835 72.0353H91.2887C91.584 72.0353 91.8671 72.1501 92.076 72.3543C92.2848 72.5586 92.4021 72.8356 92.4021 73.1245ZM84.6082 73.1245C84.6082 72.9091 84.5429 72.6985 84.4206 72.5194C84.2983 72.3403 84.1244 72.2007 83.9209 72.1182C83.7175 72.0358 83.4936 72.0142 83.2776 72.0563C83.0616 72.0983 82.8633 72.202 82.7075 72.3543C82.5518 72.5067 82.4458 72.7007 82.4028 72.912C82.3599 73.1233 82.3819 73.3423 82.4662 73.5413C82.5505 73.7403 82.6932 73.9104 82.8763 74.0301C83.0594 74.1498 83.2746 74.2136 83.4948 74.2136C83.7901 74.2136 84.0733 74.0989 84.2821 73.8946C84.4909 73.6904 84.6082 73.4133 84.6082 73.1245Z" fill="#242424"/>
<path d="M69.7669 41.6964C69.2141 40.386 68.417 39.1985 67.4202 38.2005C66.4227 37.1994 65.2466 36.4039 63.9559 35.8571C62.6175 35.288 61.182 34.9966 59.7327 35C57.6995 35 55.7158 35.57 53.9919 36.6467C53.5794 36.9042 53.1876 37.1871 52.8165 37.4953C52.4453 37.1871 52.0535 36.9042 51.6411 36.6467C49.9172 35.57 47.9334 35 45.9002 35C44.4361 35 43.0174 35.2871 41.6771 35.8571C40.3821 36.406 39.2149 37.1956 38.2127 38.2005C37.2147 39.1974 36.4174 40.3852 35.8661 41.6964C35.2928 43.0602 35 44.5084 35 45.9988C35 47.4048 35.2804 48.8699 35.8372 50.3604C36.3032 51.6059 36.9714 52.8979 37.8251 54.2026C39.1778 56.2672 41.0378 58.4205 43.3473 60.6034C47.1746 64.2218 50.9647 66.7214 51.1256 66.8227L52.103 67.4645C52.536 67.7474 53.0928 67.7474 53.5258 67.4645L54.5033 66.8227C54.6641 66.7171 58.4501 64.2218 62.2815 60.6034C64.591 58.4205 66.451 56.2672 67.8038 54.2026C68.6575 52.8979 69.3297 51.6059 69.7916 50.3604C70.3484 48.8699 70.6288 47.4048 70.6288 45.9988C70.6329 44.5084 70.3401 43.0602 69.7669 41.6964Z" fill="#FFC41E"/>
</svg>
