<svg width="150" height="150" viewBox="0 0 150 150" fill="none" xmlns="http://www.w3.org/2000/svg">
<circle cx="75" cy="75" r="74" stroke="#FFC41E" stroke-width="2"/>
<path d="M66.6852 53.7643L82.6324 59.2758V81.7595C82.6324 82.1962 82.4531 82.6151 82.134 82.9239C81.8148 83.2328 81.382 83.4062 80.9307 83.4062H74.1238C73.6725 83.4062 73.2396 83.2328 72.9205 82.9239C72.6014 82.6151 72.4221 82.1962 72.4221 81.7595V70.232H55.4049V81.7595C55.4049 82.1962 55.2256 82.6151 54.9065 82.9239C54.5873 83.2328 54.1545 83.4062 53.7032 83.4062H46.8963C46.445 83.4062 46.0121 83.2328 45.693 82.9239C45.3739 82.6151 45.1946 82.1962 45.1946 81.7595V59.7431C41.2423 58.3794 38.3877 54.7585 38.3877 50.4707C38.3877 49.5972 38.7463 48.7595 39.3845 48.1418C40.0228 47.5242 40.8885 47.1772 41.7911 47.1772C42.6938 47.1772 43.5595 47.5242 44.1977 48.1418C44.836 48.7595 45.1946 49.5972 45.1946 50.4707C45.1963 51.3437 45.5554 52.1805 46.1933 52.7978C46.8312 53.4151 47.6959 53.7626 48.598 53.7643H66.6852ZM92.8427 42.2368V45.5304C92.8427 47.2774 92.1256 48.9528 90.849 50.1882C89.5725 51.4235 87.8411 52.1175 86.0358 52.1175H82.6324V55.7795L69.0186 51.0749V35.6497C69.0186 34.1831 70.8501 33.4482 71.9233 34.4857L74.8247 37.2965H80.5287C81.689 37.2965 83.0546 38.1116 83.5726 39.1172L84.3341 40.59H91.141C91.5923 40.59 92.0252 40.7635 92.3443 41.0724C92.6634 41.3812 92.8427 41.8001 92.8427 42.2368ZM80.9307 42.2368C80.9307 41.9111 80.8309 41.5927 80.6439 41.3219C80.4569 41.0511 80.1911 40.84 79.8802 40.7154C79.5692 40.5908 79.2271 40.5582 78.897 40.6217C78.5669 40.6852 78.2637 40.8421 78.0257 41.0724C77.7877 41.3027 77.6256 41.5961 77.5599 41.9156C77.4943 42.235 77.528 42.5661 77.6568 42.867C77.7856 43.1679 78.0037 43.4251 78.2835 43.6061C78.5634 43.787 78.8924 43.8836 79.229 43.8836C79.6803 43.8836 80.1131 43.7101 80.4323 43.4013C80.7514 43.0924 80.9307 42.6736 80.9307 42.2368Z" fill="#242424"/>
<path d="M52.1032 63.5312C48.638 63.5312 45.4373 65.2503 43.5101 68.1145L36.2969 78.8123C35.448 80.0737 34.9966 81.5572 35 83.0739V100.123C34.9953 101.265 35.3756 102.377 36.0806 103.28C36.7856 104.183 37.7747 104.826 38.8907 105.108L45.6189 106.798C46.1027 109.111 47.3736 111.189 49.2183 112.682C51.063 114.175 53.3692 114.994 55.75 115C60.5537 115 64.5636 111.703 65.7204 107.28H89.8734C91.0302 111.703 95.0401 115 99.8438 115C104.647 115 108.657 111.703 109.814 107.28H112.812C115.65 107.28 118 104.948 118 102.133V92.7243C117.998 90.4305 117.223 88.2033 115.798 86.3965C114.374 84.5897 112.382 83.3071 110.138 82.7523L96.1139 79.2138L85.9828 67.2319C85.0136 66.0748 83.7997 65.1434 82.4272 64.5039C81.0546 63.8644 79.5571 63.5323 78.0407 63.5312H52.1032ZM52.1032 68.6781H63.5313V78.9719H42.4571L47.808 71.0097V70.9299C48.2779 70.2296 48.9167 69.6568 49.6663 69.2636C50.416 68.8704 51.2527 68.6691 52.1006 68.6781H52.1032ZM68.7188 68.6781H78.0407C79.5788 68.6781 81.0287 69.3524 82.0117 70.5284L89.1445 78.9719H68.7188V68.6781ZM40.1875 84.1187H94.332L108.922 87.737C110.041 88.0126 111.035 88.6549 111.741 89.56C112.447 90.465 112.824 91.5799 112.812 92.7243V102.133H109.814C108.657 97.7091 104.647 94.4125 99.8438 94.4125C95.0401 94.4125 91.0302 97.7091 89.8734 102.133H65.7204C64.5636 97.7091 60.5537 94.4125 55.75 94.4125C51.1513 94.4125 47.2892 97.4286 45.9431 101.569L40.1875 100.126V84.1187ZM55.75 99.5594C58.6473 99.5594 60.9375 101.832 60.9375 104.706C60.9375 107.581 58.6473 109.853 55.75 109.853C52.8528 109.853 50.5625 107.581 50.5625 104.706C50.5625 101.832 52.8528 99.5594 55.75 99.5594ZM99.8438 99.5594C102.741 99.5594 105.031 101.832 105.031 104.706C105.031 107.581 102.741 109.853 99.8438 109.853C96.9465 109.853 94.6563 107.581 94.6563 104.706C94.6563 101.832 96.9465 99.5594 99.8438 99.5594Z" fill="#FFC41E"/>
</svg>
