<svg width="150" height="150" viewBox="0 0 150 150" fill="none" xmlns="http://www.w3.org/2000/svg">
<path d="M149 75C149 115.869 115.869 149 75 149C34.1309 149 1 115.869 1 75C1 34.1309 34.1309 1 75 1C115.869 1 149 34.1309 149 75Z" stroke="#FFC41E" stroke-width="2"/>
<mask id="path-2-inside-1" fill="white">
<path fill-rule="evenodd" clip-rule="evenodd" d="M56.8303 38H41.8814V51.846L28 51.846V66.757H41.8814V80.603H56.8303V66.757H70.7111V51.846L56.8303 51.846V38Z"/>
</mask>
<path d="M41.8814 38V34H37.8814V38H41.8814ZM56.8303 38H60.8303V34H56.8303V38ZM41.8814 51.846V55.846L45.8814 55.846V51.846H41.8814ZM28 51.846L28 47.846H24V51.846H28ZM28 66.757H24V70.757H28V66.757ZM41.8814 66.757H45.8814V62.757H41.8814V66.757ZM41.8814 80.603H37.8814V84.603H41.8814V80.603ZM56.8303 80.603V84.603H60.8303V80.603H56.8303ZM56.8303 66.757V62.757H52.8303V66.757H56.8303ZM70.7111 66.757V70.757H74.7111V66.757H70.7111ZM70.7111 51.846H74.7111V47.846H70.7111V51.846ZM56.8303 51.846H52.8303V55.846H56.8303V51.846ZM41.8814 42H56.8303V34H41.8814V42ZM45.8814 51.846V38H37.8814V51.846H45.8814ZM28 55.846H41.8814V47.846L28 47.846L28 55.846ZM32 66.757V51.846H24V66.757H32ZM41.8814 62.757H28V70.757H41.8814V62.757ZM45.8814 80.603V66.757H37.8814V80.603H45.8814ZM56.8303 76.603H41.8814V84.603H56.8303V76.603ZM52.8303 66.757V80.603H60.8303V66.757H52.8303ZM70.7111 62.757H56.8303V70.757H70.7111V62.757ZM66.7111 51.846V66.757H74.7111V51.846H66.7111ZM56.8303 55.846L70.7111 55.846V47.846L56.8303 47.846V55.846ZM52.8303 38V51.846H60.8303V38H52.8303Z" fill="#FFC41E" mask="url(#path-2-inside-1)"/>
<path d="M71.745 75.9576L90.5742 82.4733V109.053C90.5742 109.569 90.3625 110.065 89.9857 110.43C89.6089 110.795 89.0979 111 88.565 111H80.5279C79.9951 111 79.484 110.795 79.1072 110.43C78.7304 110.065 78.5187 109.569 78.5187 109.053V95.4255H58.4261V109.053C58.4261 109.569 58.2144 110.065 57.8376 110.43C57.4608 110.795 56.9497 111 56.4168 111H48.3798C47.8469 111 47.3358 110.795 46.959 110.43C46.5822 110.065 46.3705 109.569 46.3705 109.053V83.0257C41.704 81.4135 38.3335 77.1329 38.3335 72.064C38.3335 71.0313 38.7569 70.041 39.5105 69.3108C40.2641 68.5806 41.2862 68.1704 42.352 68.1704C43.4178 68.1704 44.4399 68.5806 45.1935 69.3108C45.9472 70.041 46.3705 71.0313 46.3705 72.064C46.3725 73.096 46.7965 74.0853 47.5497 74.815C48.3029 75.5448 49.3239 75.9556 50.3891 75.9576H71.745ZM102.63 62.33V66.2236C102.63 68.2889 101.783 70.2696 100.276 71.73C98.7686 73.1903 96.7243 74.0108 94.5928 74.0108H90.5742V78.34L74.5002 72.7782V54.5428C74.5002 52.8089 76.6626 51.9402 77.9297 53.1667L81.3555 56.4896H88.0903C89.4604 56.4896 91.0728 57.4533 91.6844 58.642L92.5835 60.3832H100.621C101.153 60.3832 101.664 60.5883 102.041 60.9534C102.418 61.3185 102.63 61.8137 102.63 62.33ZM88.565 62.33C88.565 61.945 88.4471 61.5686 88.2264 61.2484C88.0056 60.9283 87.6918 60.6787 87.3246 60.5314C86.9575 60.384 86.5535 60.3455 86.1637 60.4206C85.774 60.4957 85.416 60.6811 85.135 60.9534C84.854 61.2257 84.6626 61.5725 84.5851 61.9502C84.5075 62.3278 84.5473 62.7193 84.6994 63.075C84.8515 63.4307 85.109 63.7348 85.4394 63.9487C85.7699 64.1626 86.1583 64.2768 86.5557 64.2768C87.0886 64.2768 87.5997 64.0717 87.9765 63.7066C88.3533 63.3415 88.565 62.8463 88.565 62.33Z" fill="#242424"/>
<path d="M121 98.9749C121 105.675 115.483 111 108.543 111H97.8651C90.9246 111 85.4077 105.675 85.4077 98.9749V93.8213H121V98.9749Z" fill="#FFC41E"/>
</svg>
