<svg width="150" height="150" viewBox="0 0 150 150" fill="none" xmlns="http://www.w3.org/2000/svg">
<circle cx="75" cy="75" r="74" stroke="#FFC41E" stroke-width="2"/>
<path d="M48 85.3465V55.0196C48 53.5572 48.5729 52.1547 49.5927 51.1206C50.6126 50.0866 51.9957 49.5056 53.438 49.5056V49.5056C54.8802 49.5056 56.2634 50.0866 57.2832 51.1206C58.303 52.1547 58.876 53.5572 58.876 55.0196V74.3186" stroke="black" stroke-width="4" stroke-linecap="round" stroke-linejoin="round"/>
<path d="M58.876 74.5001V44.1732C58.876 42.7108 59.4738 41.3083 60.538 40.2742C61.6021 39.2401 63.0454 38.6592 64.5504 38.6592C66.0553 38.6592 67.4987 39.2401 68.5628 40.2742C69.627 41.3083 70.2248 42.7108 70.2248 44.1732V71.7431" stroke="black" stroke-width="4" stroke-linecap="round" stroke-linejoin="round"/>
<path d="M81.1008 71.8122V46.9708C81.1008 45.5168 81.6987 44.1224 82.7628 43.0942C83.827 42.0661 85.2703 41.4885 86.7752 41.4885V41.4885C88.2802 41.4885 89.7235 42.0661 90.7877 43.0942C91.8518 44.1224 92.4497 45.5168 92.4497 46.9708V85.3465" stroke="black" stroke-width="4" stroke-linecap="round" stroke-linejoin="round"/>
<path d="M70.2246 71.6705V38.5244C70.2246 37.0592 70.7975 35.6541 71.8174 34.618C72.8372 33.582 74.2204 33 75.6626 33C77.1048 33 78.488 33.582 79.5078 34.618C80.5276 35.6541 81.1006 37.0592 81.1006 38.5244V71.6705" stroke="black" stroke-width="4" stroke-linecap="round" stroke-linejoin="round"/>
<path d="M48 85.4721C48 105.836 59.0896 116 74.3379 116C89.5862 116 95.7739 109.131 99.2896 100.736L108.423 75.7587C109.577 72.6278 109.054 69.7242 106.366 68.1961C103.677 66.6662 100.144 67.4537 98.6884 70.222L92.3586 85.4721" stroke="black" stroke-width="4" stroke-linecap="round" stroke-linejoin="round"/>
<path fill-rule="evenodd" clip-rule="evenodd" d="M77.3461 88.139C77.4944 88.161 77.6442 88.1721 77.7941 88.1721C78.8932 88.1721 79.9611 87.592 80.8033 86.5382C81.5528 85.6002 82.0737 84.3375 82.2718 82.9809C82.7404 79.754 81.3129 76.966 79.022 76.6286C78.8737 76.6066 78.724 76.5955 78.574 76.5955C77.4763 76.5969 76.4063 77.1763 75.5655 78.228C74.8153 79.1653 74.2916 80.4294 74.0963 81.7881C73.6277 85.0151 75.0552 87.803 77.3461 88.139ZM68.8085 88.1722C67.7101 88.1722 66.6414 87.592 65.7993 86.5382C65.0491 85.6002 64.5254 84.3375 64.33 82.9824C63.8615 79.754 65.289 76.9661 67.5799 76.6301C67.7282 76.608 67.8779 76.5969 68.0279 76.5969C69.1255 76.5969 70.1956 77.1764 71.0364 78.228C71.7866 79.1654 72.3103 80.4295 72.5063 81.7867C72.9748 85.0151 71.5474 87.803 69.2565 88.139C69.1082 88.1611 68.9584 88.1722 68.8085 88.1722ZM89.8891 86.1077C89.4963 85.1767 88.8438 84.5055 88.0016 84.1674L87.9903 84.1632C87.607 84.0134 87.1989 83.9368 86.7872 83.9373H86.7419C84.8141 83.9662 82.8459 85.6002 81.8452 88.0035C81.1113 89.7609 81.027 91.6511 81.6201 93.0599C82.0122 93.9915 82.6661 94.6628 83.5118 95.0008L83.521 95.0044C83.9044 95.154 84.3125 95.2306 84.7242 95.2302C86.6704 95.2302 88.6591 93.5963 89.6782 91.1612C90.4029 89.4059 90.4829 87.5172 89.8891 86.1077ZM82.1864 96.4731C81.0746 95.8068 80.0236 95.1766 79.3371 94.0444C77.4433 90.9106 76.2996 89.0191 73.301 89.0191C70.3024 89.0191 69.1559 90.9106 67.2578 94.0444C66.5706 95.1768 65.519 95.8076 64.4049 96.476L64.4014 96.4781L64.4013 96.4781C63.1225 97.2446 61.8012 98.0365 61.2308 99.5949C61.0091 100.157 60.8974 100.756 60.9017 101.359C60.9017 103.897 62.8834 105.961 65.3179 105.961C66.5741 105.961 67.911 105.527 69.3257 105.068C70.686 104.626 72.0922 104.169 73.3081 104.169C74.5239 104.169 75.9266 104.626 77.2819 105.068L77.3201 105.08C78.7178 105.532 80.0357 105.958 81.2841 105.958C83.7151 105.958 85.6932 103.894 85.6932 101.357C85.6952 100.752 85.5811 100.153 85.357 99.5921C84.7867 98.0325 83.465 97.2399 82.1871 96.4735L82.1864 96.4731ZM63.0907 95.0008L63.0808 95.0044C62.6982 95.1539 62.2908 95.2306 61.8798 95.2302C59.9357 95.2302 57.9477 93.5956 56.9335 91.1634C56.2011 89.4059 56.1175 87.5179 56.7106 86.1062C57.102 85.1753 57.7552 84.5019 58.5974 84.1667L58.6073 84.1632C58.9906 84.0133 59.3987 83.9367 59.8104 83.9373C61.7545 83.9373 63.7425 85.5719 64.7567 88.0042C65.4892 89.7616 65.5727 91.6497 64.9796 93.0613C64.5883 93.9922 63.935 94.6628 63.0907 95.0008Z" fill="#FFC41E"/>
</svg>
