<svg width="150" height="150" viewBox="0 0 150 150" fill="none" xmlns="http://www.w3.org/2000/svg">
<circle cx="75" cy="75" r="74" stroke="#FFC41E" stroke-width="2"/>
<path fill-rule="evenodd" clip-rule="evenodd" d="M66.5615 47.2763C66.5615 45.8769 67.1168 44.5349 68.1051 43.5454C69.0934 42.5559 70.4339 42 71.8316 42H103.452C104.85 42 106.19 42.5559 107.179 43.5454C108.167 44.5349 108.722 45.8769 108.722 47.2763V60.4671H66.5615V47.2763ZM96.8646 49.9145C96.5151 49.9145 96.18 50.0534 95.9329 50.3008C95.6859 50.5482 95.5471 50.8837 95.5471 51.2335V53.8717C95.5471 54.2215 95.6859 54.557 95.9329 54.8044C96.18 55.0518 96.5151 55.1908 96.8646 55.1908H102.135C102.484 55.1908 102.819 55.0518 103.066 54.8044C103.313 54.557 103.452 54.2215 103.452 53.8717V51.2335C103.452 50.8837 103.313 50.5482 103.066 50.3008C102.819 50.0534 102.484 49.9145 102.135 49.9145H96.8646Z" fill="#FFC41E"/>
<path d="M66.5615 65.7434V68.3816C66.5615 69.7809 67.1168 71.123 68.1051 72.1125C69.0934 73.102 70.4339 73.6579 71.8316 73.6579H103.452C104.85 73.6579 106.19 73.102 107.179 72.1125C108.167 71.123 108.722 69.7809 108.722 68.3816V65.7434H66.5615Z" fill="#FFC41E"/>
<mask id="path-4-inside-1" fill="white">
<rect x="30" y="66.6338" width="14.3347" height="41.3662" rx="2"/>
</mask>
<rect x="30" y="66.6338" width="14.3347" height="41.3662" rx="2" stroke="#242424" stroke-width="8" mask="url(#path-4-inside-1)"/>
<path d="M48.8538 73.6577V101.094C55.1779 101.094 57.1238 102.378 63.61 102.783C85.7081 109.725 90.3714 107.329 101.127 101.094C105.106 98.7881 111.573 93.7898 116.049 90.1198C122.059 84.1765 121.455 82.6063 120.105 81.2556C114.203 75.3461 107.879 89.2756 96.0738 90.1198C86.984 90.7698 71.6206 89.2756 67.8261 89.2756" stroke="#242424" stroke-width="4"/>
<path d="M47.1675 73.6577C50.8214 73.3763 58.5948 72.3246 61.9237 73.6577C66.1398 75.3462 67.8911 79.0438 70.289 79.8464C75.7604 81.6777 84.7044 81.372 88.0634 81.6777C92.7011 82.0998 100.29 82.0998 99.8684 88.4313C99.6024 92.4269 77.1016 89.2755 68.2479 89.2755" stroke="#242424" stroke-width="4"/>
</svg>
